<?xml version="1.0" standalone="yes"?>

<svg version="1.1" viewBox="0.0 0.0 512.0 512.0" fill="none" stroke="none" stroke-linecap="square" stroke-miterlimit="10" xmlns="http://www.w3.org/2000/svg" xmlns:xlink="http://www.w3.org/1999/xlink"><clipPath id="p.0"><path d="m0 0l512.0 0l0 512.0l-512.0 0l0 -512.0z" clip-rule="nonzero"></path></clipPath><g clip-path="url(#p.0)"><path fill="#000000" fill-opacity="0.0" d="m0 0l512.0 0l0 512.0l-512.0 0z" fill-rule="evenodd"></path><path fill="#000000" fill-opacity="0.0" d="m256.0 256.0l160.0 0" fill-rule="evenodd"></path><path stroke="#282828" stroke-width="16.0" stroke-linejoin="round" stroke-linecap="butt" d="m256.0 256.0l160.0 0" fill-rule="evenodd"></path><path fill="#000000" fill-opacity="0.0" d="m256.0 384.0l0 -160.0" fill-rule="evenodd"></path><path stroke="#282828" stroke-width="16.0" stroke-linejoin="round" stroke-linecap="butt" d="m256.0 384.0l0 -160.0" fill-rule="evenodd"></path><path fill="#000000" fill-opacity="0.0" d="m160.0 352.0l96.0 -96.0" fill-rule="evenodd"></path><path stroke="#282828" stroke-width="16.0" stroke-linejoin="round" stroke-linecap="butt" d="m160.0 352.0l96.0 -96.0" fill-rule="evenodd"></path><path fill="#000000" fill-opacity="0.0" d="m128.0 256.0l128.0 0" fill-rule="evenodd"></path><path stroke="#282828" stroke-width="16.0" stroke-linejoin="round" stroke-linecap="butt" d="m128.0 256.0l128.0 0" fill-rule="evenodd"></path><path fill="#000000" fill-opacity="0.0" d="m192.0 416.0l64.0 -160.0" fill-rule="evenodd"></path><path stroke="#282828" stroke-width="16.0" stroke-linejoin="round" stroke-linecap="butt" d="m192.0 416.0l64.0 -160.0" fill-rule="evenodd"></path><path fill="#000000" fill-opacity="0.0" d="m160.0 160.0l96.0 96.0" fill-rule="evenodd"></path><path stroke="#282828" stroke-width="16.0" stroke-linejoin="round" stroke-linecap="butt" d="m160.0 160.0l96.0 96.0" fill-rule="evenodd"></path><path fill="#000000" fill-opacity="0.0" d="m256.0 128.0l0 128.0" fill-rule="evenodd"></path><path stroke="#282828" stroke-width="16.0" stroke-linejoin="round" stroke-linecap="butt" d="m256.0 128.0l0 128.0" fill-rule="evenodd"></path><path fill="#000000" fill-opacity="0.0" d="m256.0 256.0l-64.0 -160.0" fill-rule="evenodd"></path><path stroke="#282828" stroke-width="16.0" stroke-linejoin="round" stroke-linecap="butt" d="m256.0 256.0l-64.0 -160.0" fill-rule="evenodd"></path><path fill="#000000" fill-opacity="0.0" d="m256.0 256.0l-160.0 64.0" fill-rule="evenodd"></path><path stroke="#282828" stroke-width="16.0" stroke-linejoin="round" stroke-linecap="butt" d="m256.0 256.0l-160.0 64.0" fill-rule="evenodd"></path><path fill="#000000" fill-opacity="0.0" d="m256.0 256.0l-160.0 -64.0" fill-rule="evenodd"></path><path stroke="#282828" stroke-width="16.0" stroke-linejoin="round" stroke-linecap="butt" d="m256.0 256.0l-160.0 -64.0" fill-rule="evenodd"></path><path fill="#ffffff" d="m160.0 256.0l0 0c0 -53.019333 42.980667 -96.0 96.0 -96.0l0 0c25.460785 0 49.878754 10.114258 67.88226 28.117752c18.003479 18.003494 28.117737 42.421463 28.117737 67.88225l0 0c0 53.01935 -42.98065 96.0 -96.0 96.0l0 0c-53.019333 0 -96.0 -42.98065 -96.0 -96.0z" fill-rule="evenodd"></path><path stroke="#282828" stroke-width="24.0" stroke-linejoin="round" stroke-linecap="butt" d="m160.0 256.0l0 0c0 -53.019333 42.980667 -96.0 96.0 -96.0l0 0c25.460785 0 49.878754 10.114258 67.88226 28.117752c18.003479 18.003494 28.117737 42.421463 28.117737 67.88225l0 0c0 53.01935 -42.98065 96.0 -96.0 96.0l0 0c-53.019333 0 -96.0 -42.98065 -96.0 -96.0z" fill-rule="evenodd"></path></g></svg>

