<?xml version="1.0" standalone="yes"?>

<svg version="1.1" viewBox="0.0 0.0 128.0 128.0" fill="none" stroke="none" stroke-linecap="square" stroke-miterlimit="10" xmlns="http://www.w3.org/2000/svg" xmlns:xlink="http://www.w3.org/1999/xlink"><clipPath id="p.0"><path d="m0 0l128.0 0l0 128.0l-128.0 0l0 -128.0z" clip-rule="nonzero"></path></clipPath><g clip-path="url(#p.0)"><path fill="#000000" fill-opacity="0.0" d="m0 0l128.0 0l0 128.0l-128.0 0z" fill-rule="evenodd"></path><path fill="#000000" fill-opacity="0.0" d="m40.0 40.0l24.0 24.0" fill-rule="evenodd"></path><path stroke="#000000" stroke-width="1.0" stroke-linejoin="round" stroke-linecap="butt" d="m40.0 40.0l24.0 24.0" fill-rule="evenodd"></path><path fill="#000000" fill-opacity="0.0" d="m40.0 88.0l24.0 -24.0" fill-rule="evenodd"></path><path stroke="#000000" stroke-width="1.0" stroke-linejoin="round" stroke-linecap="butt" d="m40.0 88.0l24.0 -24.0" fill-rule="evenodd"></path><path fill="#000000" fill-opacity="0.0" d="m32.0 64.0l32.0 0" fill-rule="evenodd"></path><path stroke="#000000" stroke-width="1.0" stroke-linejoin="round" stroke-linecap="butt" d="m32.0 64.0l32.0 0" fill-rule="evenodd"></path><path fill="#000000" fill-opacity="0.0" d="m64.0 64.0l32.0 0" fill-rule="evenodd"></path><path stroke="#000000" stroke-width="1.0" stroke-linejoin="round" stroke-linecap="butt" d="m64.0 64.0l32.0 0" fill-rule="evenodd"></path><path fill="#000000" fill-opacity="0.0" d="m64.0 48.0l0 32.0" fill-rule="evenodd"></path><path stroke="#000000" stroke-width="2.0" stroke-linejoin="round" stroke-linecap="butt" d="m64.0 48.0l0 32.0" fill-rule="evenodd"></path><path fill="#000000" fill-opacity="0.0" d="m48.0 64.0l32.0 0" fill-rule="evenodd"></path><path stroke="#000000" stroke-width="2.0" stroke-linejoin="round" stroke-linecap="butt" d="m48.0 64.0l32.0 0" fill-rule="evenodd"></path><path fill="#000000" fill-opacity="0.0" d="m56.0 56.0l16.0 16.0" fill-rule="evenodd"></path><path stroke="#000000" stroke-width="2.0" stroke-linejoin="round" stroke-linecap="butt" d="m56.0 56.0l16.0 16.0" fill-rule="evenodd"></path><path fill="#000000" fill-opacity="0.0" d="m72.0 56.0l-16.0 16.0" fill-rule="evenodd"></path><path stroke="#000000" stroke-width="2.0" stroke-linejoin="round" stroke-linecap="butt" d="m72.0 56.0l-16.0 16.0" fill-rule="evenodd"></path><path fill="#000000" fill-opacity="0.0" d="m64.0 96.0l0 -40.0" fill-rule="evenodd"></path><path stroke="#000000" stroke-width="1.0" stroke-linejoin="round" stroke-linecap="butt" d="m64.0 96.0l0 -40.0" fill-rule="evenodd"></path><path fill="#000000" fill-opacity="0.0" d="m64.0 32.0l0 32.0" fill-rule="evenodd"></path><path stroke="#000000" stroke-width="1.0" stroke-linejoin="round" stroke-linecap="butt" d="m64.0 32.0l0 32.0" fill-rule="evenodd"></path><path fill="#000000" fill-opacity="0.0" d="m64.0 64.0l-16.0 -40.0" fill-rule="evenodd"></path><path stroke="#000000" stroke-width="1.0" stroke-linejoin="round" stroke-linecap="butt" d="m64.0 64.0l-16.0 -40.0" fill-rule="evenodd"></path><path fill="#000000" fill-opacity="0.0" d="m48.0 104.0l16.0 -40.0" fill-rule="evenodd"></path><path stroke="#000000" stroke-width="1.0" stroke-linejoin="round" stroke-linecap="butt" d="m48.0 104.0l16.0 -40.0" fill-rule="evenodd"></path><path fill="#000000" fill-opacity="0.0" d="m64.0 64.0l-40.0 16.0" fill-rule="evenodd"></path><path stroke="#000000" stroke-width="1.0" stroke-linejoin="round" stroke-linecap="butt" d="m64.0 64.0l-40.0 16.0" fill-rule="evenodd"></path><path fill="#000000" fill-opacity="0.0" d="m64.0 64.0l-40.0 -16.0" fill-rule="evenodd"></path><path stroke="#000000" stroke-width="1.0" stroke-linejoin="round" stroke-linecap="butt" d="m64.0 64.0l-40.0 -16.0" fill-rule="evenodd"></path><path fill="#000000" fill-opacity="0.0" d="m40.0 64.0l0 0c0 -13.254833 10.745167 -24.0 24.0 -24.0l0 0c6.365196 0 12.469688 2.5285645 16.970566 7.029438c4.5008698 4.5008736 7.029434 10.605366 7.029434 16.970562l0 0c0 13.254837 -10.745163 24.0 -24.0 24.0l0 0c-13.254833 0 -24.0 -10.745163 -24.0 -24.0z" fill-rule="evenodd"></path><path stroke="#000000" stroke-width="2.0" stroke-linejoin="round" stroke-linecap="butt" d="m40.0 64.0l0 0c0 -13.254833 10.745167 -24.0 24.0 -24.0l0 0c6.365196 0 12.469688 2.5285645 16.970566 7.029438c4.5008698 4.5008736 7.029434 10.605366 7.029434 16.970562l0 0c0 13.254837 -10.745163 24.0 -24.0 24.0l0 0c-13.254833 0 -24.0 -10.745163 -24.0 -24.0z" fill-rule="evenodd"></path></g></svg>

